<svg width="24" height="24" viewBox="0 0 24 24" fill="none" xmlns="http://www.w3.org/2000/svg">
<rect width="24" height="24" fill="white"/>
<mask id="path-2-outside-1" maskUnits="userSpaceOnUse" x="0" y="2" width="24" height="18" fill="black">
<rect fill="white" y="2" width="24" height="18"/>
<path d="M9.2197 6.75758H6.63636V8.63636H4.28788V12.3939V15.6818H6.16667L8.04545 18.5H15.5606L16.5 14.7424H19.7879V16.1515H21.6667V9.10606H19.7879V10.9848H16.9697L14.1515 6.75758H9.2197Z"/>
</mask>
<path d="M9.2197 6.75758H6.63636V8.63636H4.28788V12.3939V15.6818H6.16667L8.04545 18.5H15.5606L16.5 14.7424H19.7879V16.1515H21.6667V9.10606H19.7879V10.9848H16.9697L14.1515 6.75758H9.2197Z" fill="black" fill-opacity="0.376"/>
<path d="M6.16667 2.29545C5.77756 2.29545 5.46212 2.61089 5.46212 3C5.46212 3.38911 5.77756 3.70455 6.16667 3.70455V2.29545ZM12.2727 3.70455C12.6618 3.70455 12.9773 3.38911 12.9773 3C12.9773 2.61089 12.6618 2.29545 12.2727 2.29545V3.70455ZM8.51515 6.75758C8.51515 7.14669 8.83059 7.46212 9.2197 7.46212C9.60881 7.46212 9.92424 7.14669 9.92424 6.75758H8.51515ZM6.63636 6.05303C6.24725 6.05303 5.93182 6.36847 5.93182 6.75758C5.93182 7.14669 6.24725 7.46212 6.63636 7.46212V6.05303ZM14.1515 7.46212C14.5406 7.46212 14.8561 7.14669 14.8561 6.75758C14.8561 6.36847 14.5406 6.05303 14.1515 6.05303V7.46212ZM4.28788 13.0985C4.67699 13.0985 4.99242 12.783 4.99242 12.3939C4.99242 12.0048 4.67699 11.6894 4.28788 11.6894V13.0985ZM1.70455 10.0455C1.70455 9.65634 1.38911 9.34091 1 9.34091C0.61089 9.34091 0.295455 9.65634 0.295455 10.0455H1.70455ZM0.295455 15.6818C0.295455 16.0709 0.61089 16.3864 1 16.3864C1.38911 16.3864 1.70455 16.0709 1.70455 15.6818H0.295455ZM6.16667 3.70455H9.2197V2.29545H6.16667V3.70455ZM9.2197 3.70455H12.2727V2.29545H9.2197V3.70455ZM8.51515 3V5.81818H9.92424V3H8.51515ZM8.51515 5.81818V6.75758H9.92424V5.81818H8.51515ZM6.63636 7.46212H14.1515V6.05303H6.63636V7.46212ZM4.28788 11.6894H1V13.0985H4.28788V11.6894ZM1.70455 12.3939V10.0455H0.295455V12.3939H1.70455ZM0.295455 10.0455V12.8636H1.70455V10.0455H0.295455ZM0.295455 12.8636V15.6818H1.70455V12.8636H0.295455ZM1.70455 12.8636V12.3939H0.295455V12.8636H1.70455ZM6.63636 6.75758V5.34848H5.22727V6.75758H6.63636ZM14.1515 6.75758L15.3239 5.97595C15.0626 5.58395 14.6226 5.34848 14.1515 5.34848V6.75758ZM16.9697 10.9848L15.7973 11.7665L16.2156 12.3939H16.9697V10.9848ZM19.7879 10.9848V12.3939H21.197V10.9848H19.7879ZM19.7879 9.10606V7.69697H18.3788V9.10606H19.7879ZM21.6667 9.10606H23.0758C23.0758 8.32784 22.4449 7.69697 21.6667 7.69697V9.10606ZM21.6667 16.1515V17.5606C22.4449 17.5606 23.0758 16.9297 23.0758 16.1515H21.6667ZM19.7879 16.1515H18.3788V17.5606H19.7879V16.1515ZM19.7879 14.7424H21.197V13.3333H19.7879V14.7424ZM16.5 14.7424V13.3333H15.3998L15.133 14.4007L16.5 14.7424ZM15.5606 18.5V19.9091C16.2072 19.9091 16.7708 19.469 16.9276 18.8418L15.5606 18.5ZM8.04545 18.5L6.87302 19.2816L7.29133 19.9091H8.04545V18.5ZM6.16667 15.6818L7.3391 14.9002L6.92079 14.2727H6.16667V15.6818ZM4.28788 15.6818H2.87879V17.0909H4.28788V15.6818ZM4.28788 8.63636V7.22727H2.87879V8.63636H4.28788ZM6.63636 8.63636V10.0455H8.04545V8.63636H6.63636ZM9.2197 5.34848H6.63636V8.16667H9.2197V5.34848ZM12.9791 7.5392L15.7973 11.7665L18.1421 10.2032L15.3239 5.97595L12.9791 7.5392ZM16.9697 12.3939H19.7879V9.57576H16.9697V12.3939ZM21.197 10.9848V9.10606H18.3788V10.9848H21.197ZM19.7879 10.5152H21.6667V7.69697H19.7879V10.5152ZM20.2576 9.10606V16.1515H23.0758V9.10606H20.2576ZM21.6667 14.7424H19.7879V17.5606H21.6667V14.7424ZM21.197 16.1515V14.7424H18.3788V16.1515H21.197ZM19.7879 13.3333H16.5V16.1515H19.7879V13.3333ZM15.133 14.4007L14.1936 18.1582L16.9276 18.8418L17.867 15.0842L15.133 14.4007ZM15.5606 17.0909H8.04545V19.9091H15.5606V17.0909ZM9.21789 17.7184L7.3391 14.9002L4.99423 16.4634L6.87302 19.2816L9.21789 17.7184ZM6.16667 14.2727H4.28788V17.0909H6.16667V14.2727ZM5.69697 15.6818V12.3939H2.87879V15.6818H5.69697ZM5.69697 12.3939V8.63636H2.87879V12.3939H5.69697ZM4.28788 10.0455H6.63636V7.22727H4.28788V10.0455ZM8.04545 8.63636V6.75758H5.22727V8.63636H8.04545ZM14.1515 5.34848H9.2197V8.16667H14.1515V5.34848Z" fill="black" fill-opacity="0.376" mask="url(#path-2-outside-1)"/>
</svg>
