<svg width="24" height="24" viewBox="0 0 24 24" fill="none" 
    xmlns="http://www.w3.org/2000/svg">
    <rect width="24" height="24" fill="white"/>
    <path d="M3.51135 9.79351C3.51135 9.37616 3.17302 9.03784 2.75568 9.03784C2.33833 9.03784 2 9.37616 2 9.79351H3.51135ZM2 15.8389C2 16.2563 2.33833 16.5946 2.75568 16.5946C3.17302 16.5946 3.51135 16.2563 3.51135 15.8389H2ZM16.8616 14.8314V14.0757H16.1059V14.8314H16.8616ZM16.1059 18.8616C16.1059 19.279 16.4443 19.6173 16.8616 19.6173C17.279 19.6173 17.6173 19.279 17.6173 18.8616H16.1059ZM19.3805 14.8314H20.1362V14.0757H19.3805V14.8314ZM18.6249 17.3503C18.6249 17.7676 18.9632 18.1059 19.3805 18.1059C19.7979 18.1059 20.1362 17.7676 20.1362 17.3503H18.6249ZM19.3805 8.28214L19.2563 7.53675L18.6249 7.64199V8.28214H19.3805ZM19.3805 10.8011L19.3805 11.5567L20.1362 11.5567V10.8011H19.3805ZM17.1135 10.0454C16.6961 10.0454 16.3578 10.3837 16.3578 10.8011C16.3578 11.2184 16.6962 11.5568 17.1135 11.5568L17.1135 10.0454ZM5.2746 8.78594L5.27459 8.03027L4.51892 8.03027V8.78594H5.2746ZM5.2746 15.8389H4.51892V16.5946L5.2746 16.5946L5.2746 15.8389ZM23.1589 9.28971C23.1589 8.87236 22.8206 8.53404 22.4032 8.53404C21.9859 8.53404 21.6476 8.87236 21.6476 9.28971H23.1589ZM21.6476 16.3427C21.6476 16.76 21.9859 17.0984 22.4032 17.0984C22.8206 17.0984 23.1589 16.76 23.1589 16.3427H21.6476ZM3.51135 12.0605C3.09401 12.0605 2.75568 12.3989 2.75568 12.8162C2.75568 13.2335 3.09401 13.5719 3.51135 13.5719V12.0605ZM4.51892 13.5719C4.93627 13.5719 5.27459 13.2335 5.27459 12.8162C5.27459 12.3989 4.93627 12.0605 4.51892 12.0605V13.5719ZM10.5643 5.51133C10.5643 5.92868 10.9026 6.26701 11.32 6.26701C11.7373 6.26701 12.0757 5.92868 12.0757 5.51133H10.5643ZM12.0757 3.99998C12.0757 3.58264 11.7373 3.24431 11.32 3.24431C10.9026 3.24431 10.5643 3.58264 10.5643 3.99998H12.0757ZM6.78595 16.5946C7.2033 16.5946 7.54162 16.2562 7.54162 15.8389C7.54162 15.4216 7.20329 15.0832 6.78594 15.0832L6.78595 16.5946ZM7.79351 8.78593L7.79352 9.5416L8.54919 9.5416L8.54919 8.78593L7.79351 8.78593ZM21.6475 9.03783C21.6475 9.45518 21.9859 9.79351 22.4032 9.79351C22.8206 9.79351 23.1589 9.45518 23.1589 9.03783H21.6475ZM19.7851 16.7942C19.3764 16.7098 18.9767 16.9728 18.8923 17.3816C18.808 17.7903 19.071 18.19 19.4797 18.2743L19.7851 16.7942ZM23.1589 16.5946C23.1589 16.1772 22.8206 15.8389 22.4032 15.8389C21.9859 15.8389 21.6476 16.1772 21.6476 16.5946H23.1589ZM7.7935 6.26701L7.7935 5.51134L7.03782 5.51134L7.03783 6.26702L7.7935 6.26701ZM9.80863 18.1059C9.39129 18.1059 9.05296 18.4443 9.05296 18.8616C9.05296 19.279 9.39129 19.6173 9.80863 19.6173V18.1059ZM16.6097 19.6173C17.0271 19.6173 17.3654 19.279 17.3654 18.8616C17.3654 18.4443 17.0271 18.1059 16.6097 18.1059V19.6173ZM14.8465 7.0227C15.2638 7.0227 15.6022 6.68438 15.6022 6.26703C15.6022 5.84968 15.2638 5.51135 14.8465 5.51135L14.8465 7.0227ZM8.2973 2.48865C7.87995 2.48865 7.54162 2.82698 7.54162 3.24432C7.54162 3.66167 7.87995 4 8.2973 4V2.48865ZM14.3427 4C14.76 4 15.0984 3.66167 15.0984 3.24432C15.0984 2.82698 14.76 2.48865 14.3427 2.48865V4ZM15.7794 6.07767C15.6067 5.69773 15.1587 5.52973 14.7787 5.70243C14.3988 5.87513 14.2308 6.32314 14.4035 6.70308L15.7794 6.07767ZM16.297 10.8688C16.4697 11.2487 16.9177 11.4167 17.2977 11.2441C17.6776 11.0714 17.8456 10.6233 17.6729 10.2434L16.297 10.8688ZM7.6333 15.5565C7.33819 15.2614 6.85972 15.2614 6.56461 15.5565C6.26951 15.8516 6.26951 16.33 6.56461 16.6252L7.6333 15.5565ZM9.02241 19.083C9.31752 19.3781 9.79599 19.3781 10.0911 19.083C10.3862 18.7878 10.3862 18.3094 10.0911 18.0143L9.02241 19.083ZM2 9.79351V15.8389H3.51135V9.79351H2ZM16.1059 14.8314V18.8616H17.6173V14.8314H16.1059ZM18.6249 14.8314V17.3503H20.1362V14.8314H18.6249ZM18.6249 8.28214V10.8011H20.1362V8.28214H18.6249ZM19.3805 14.0757H16.8616V15.587H19.3805V14.0757ZM19.3805 10.0454L17.1135 10.0454L17.1135 11.5568L19.3805 11.5567L19.3805 10.0454ZM4.51892 8.78594V15.8389H6.03027V8.78594H4.51892ZM21.6476 9.28971V16.3427H23.1589V9.28971H21.6476ZM3.51135 13.5719H4.51892V12.0605H3.51135V13.5719ZM12.0757 5.51133V3.99998H10.5643V5.51133H12.0757ZM5.2746 16.5946L6.78595 16.5946L6.78594 15.0832L5.27459 15.0832L5.2746 16.5946ZM5.2746 9.54162L7.79352 9.5416L7.79351 8.03026L5.27459 8.03027L5.2746 9.54162ZM19.3805 8.28214C19.5048 9.02754 19.5046 9.02756 19.5045 9.02758C19.5045 9.02759 19.5044 9.0276 19.5043 9.02761C19.5042 9.02763 19.5041 9.02764 19.5041 9.02764C19.5041 9.02765 19.5042 9.02763 19.5045 9.02757C19.5052 9.02747 19.5065 9.02725 19.5085 9.02693C19.5126 9.02628 19.5193 9.02522 19.5286 9.0238C19.5471 9.02097 19.5757 9.01674 19.6129 9.01165C19.6874 9.00145 19.7956 8.98791 19.9259 8.97524C20.1901 8.94956 20.5302 8.92895 20.8604 8.94271C21.2073 8.95717 21.4674 9.00722 21.6161 9.07538C21.6836 9.10632 21.6892 9.12371 21.6758 9.10636C21.6681 9.09639 21.6594 9.08152 21.6534 9.06378C21.6475 9.04622 21.6475 9.03584 21.6475 9.03783H23.1589C23.1589 8.3292 22.6952 7.90745 22.2458 7.70147C21.8277 7.50986 21.3321 7.44971 20.9233 7.43267C20.4979 7.41494 20.0823 7.44156 19.7797 7.47098C19.6267 7.48585 19.4987 7.50183 19.4079 7.51427C19.3624 7.52049 19.3261 7.52586 19.3003 7.52979C19.2875 7.53175 19.2773 7.53336 19.2698 7.53455C19.2661 7.53514 19.2632 7.53562 19.2609 7.53599C19.2598 7.53618 19.2588 7.53634 19.258 7.53646C19.2577 7.53653 19.2573 7.53658 19.257 7.53663C19.2569 7.53665 19.2567 7.53668 19.2566 7.5367C19.2565 7.53672 19.2563 7.53675 19.3805 8.28214ZM19.6324 17.5343C19.4797 18.2743 19.4799 18.2744 19.4801 18.2744C19.4802 18.2744 19.4804 18.2745 19.4806 18.2745C19.4809 18.2746 19.4813 18.2747 19.4818 18.2748C19.4826 18.2749 19.4836 18.2751 19.4848 18.2754C19.4872 18.2759 19.4902 18.2765 19.4939 18.2772C19.5013 18.2787 19.5114 18.2806 19.5238 18.283C19.5487 18.2876 19.5835 18.2939 19.6267 18.3012C19.713 18.3156 19.8341 18.334 19.9787 18.3507C20.2635 18.3835 20.6593 18.4123 21.0679 18.3852C21.4608 18.3591 21.9512 18.2766 22.3647 18.0236C22.8287 17.7397 23.1589 17.2584 23.1589 16.5946H21.6476C21.6476 16.6865 21.6314 16.7004 21.5759 16.7344C21.4699 16.7993 21.2675 16.8573 20.9678 16.8772C20.6836 16.896 20.3867 16.8764 20.152 16.8493C20.0368 16.836 19.9414 16.8215 19.8762 16.8106C19.8437 16.8051 19.8189 16.8006 19.8033 16.7977C19.7954 16.7962 19.7899 16.7951 19.7868 16.7945C19.7853 16.7942 19.7843 16.794 19.784 16.794C19.7839 16.7939 19.7839 16.7939 19.7841 16.794C19.7842 16.794 19.7843 16.794 19.7845 16.794C19.7846 16.7941 19.7847 16.7941 19.7848 16.7941C19.7849 16.7941 19.7851 16.7942 19.6324 17.5343ZM8.54919 8.78593L8.54918 6.26701L7.03783 6.26702L7.03784 8.78593L8.54919 8.78593ZM9.80863 19.6173H16.6097V18.1059H9.80863V19.6173ZM7.7935 7.02269L14.8465 7.0227L14.8465 5.51135L7.7935 5.51134L7.7935 7.02269ZM8.2973 4H14.3427V2.48865H8.2973V4ZM14.4035 6.70308L16.297 10.8688L17.6729 10.2434L15.7794 6.07767L14.4035 6.70308ZM6.56461 16.6252L9.02241 19.083L10.0911 18.0143L7.6333 15.5565L6.56461 16.6252Z" fill="black" fill-opacity="0.376"/>
</svg>
