<svg width="24" height="25" viewBox="0 0 24 28" fill="none" xmlns="http://www.w3.org/2000/svg">
<rect width="24" height="25" fill="white"/>
<path d="M2.33003 20H21.67L19.5 13.5L17.5187 7.12993H13.3675H9.80228H5.65103L2.33003 20Z" fill="black" fill-opacity="0.376"/>
<path d="M8.10518 6.05549H5.65103C5.16103 6.05549 4.7331 6.38701 4.61067 6.86147L1.28967 19.7315C1.20665 20.0533 1.27716 20.3953 1.48066 20.658C1.68416 20.9207 1.99775 21.0744 2.33003 21.0744H21.67C22.0154 21.0744 22.3398 20.9083 22.5418 20.628C22.7437 20.3477 22.7985 19.9874 22.6891 19.6598L20.5227 13.1703L18.5447 6.81082C18.405 6.36158 17.9892 6.05549 17.5187 6.05549H15.2004C15.5303 5.1 15.5871 4.08284 15.3677 3.16778C15.1826 2.39544 14.7905 1.65876 14.1552 1.11061C13.5098 0.553663 12.6728 0.243735 11.707 0.243735C10.7399 0.243735 9.90627 0.55447 9.26175 1.11061C8.62899 1.65661 8.23693 2.38749 8.03908 3.14755C7.80036 4.06462 7.82561 5.09082 8.10518 6.05549ZM12.8312 6.05549H10.4027C10.0273 5.30748 9.9301 4.41325 10.1187 3.68889C10.2291 3.26462 10.4246 2.94548 10.6656 2.73754C10.8948 2.53974 11.2212 2.39262 11.707 2.39262C12.1941 2.39262 12.5231 2.54055 12.7514 2.73754C12.9899 2.94333 13.1793 3.25668 13.278 3.66866C13.4511 4.39062 13.3139 5.29813 12.8312 6.05549Z" stroke="black" stroke-opacity="0.376" stroke-width="2.14888" stroke-linejoin="round"/>
</svg>
